Coordinates
version=1
nRows=19
nColumns=36
inDegrees=yes

Units are S.I. units (second, meters, Newtons, ...)
If the header above contains a line with 'inDegrees', this indicates whether rotational values are in degrees (yes) or radians (no).

endheader
time	pelvis_tilt	pelvis_list	pelvis_rotation	pelvis_tx	pelvis_ty	pelvis_tz	hip_flexion_r	hip_adduction_r	hip_rotation_r	knee_angle_r	knee_angle_r_beta	ankle_angle_r	subtalar_angle_r	mtp_angle_r	hip_flexion_l	hip_adduction_l	hip_rotation_l	knee_angle_l	knee_angle_l_beta	ankle_angle_l	subtalar_angle_l	mtp_angle_l	lumbar_extension	lumbar_bending	lumbar_rotation	arm_flex_r	arm_add_r	arm_rot_r	elbow_flex_r	pro_sup_r	arm_flex_l	arm_add_l	arm_rot_l	elbow_flex_l	pro_sup_l
      6.83333330	     -1.65170889	      2.86477406	     -3.00712210	     -0.08518031	      1.34361272	     -0.06270219	     -4.40853146	     -0.11802986	     -3.67778708	      2.77416277	      0.04841827	      6.77399823	    -12.09790605	     -7.49999987	     -2.14575413	      1.49815708	     -0.11923813	      0.83407778	      0.01455740	     12.23025788	      2.33890451	     -7.49999987	      0.74349059	     -1.99918693	      2.79825706	     26.98584211	      9.03220654	     38.72692356	    146.55063142	     68.42178751	     -3.82492015	     -3.95793362	     -2.46648949	     32.61180708	     56.96965503
      6.85000000	     -1.68274959	      2.86022220	     -2.99600595	     -0.08667207	      1.34011445	     -0.06334455	     -4.38078560	     -0.11895504	     -3.88521654	      2.69104938	      0.04696767	      6.92523135	    -11.77967597	     -7.49999987	     -2.20031521	      1.50192946	     -0.20557703	      0.88483961	      0.01544336	     12.09082346	      2.30840701	     -7.49999987	      0.58873744	     -1.99502718	      2.85895648	     26.82025381	      9.05918959	     39.13872806	    146.28902616	     72.41005517	     -3.85719815	     -3.83418937	     -2.98720175	     32.81223717	     55.75415191
      6.86666670	     -1.75992138	      2.87592752	     -3.01621679	     -0.08502544	      1.34415295	     -0.06244582	     -4.30090813	     -0.10150657	     -3.83849502	      2.53747324	      0.04428726	      6.86309571	    -11.72389228	     -7.49999987	     -2.16547529	      1.49609568	     -0.29259257	      0.88148808	      0.01538487	     11.99114571	      2.27287509	     -7.49999987	      0.46658812	     -2.07061933	      3.09106676	     26.73605736	      9.02591303	     39.63658768	    146.12702439	     73.41426296	     -3.76648271	     -3.82188678	     -2.95384430	     32.63537281	     55.95537748
      6.88333330	     -1.85912789	      2.91175695	     -2.95206741	     -0.08361571	      1.34748306	     -0.06247518	     -4.24674250	     -0.11567458	     -3.82684152	      2.42955966	      0.04240382	      6.70225317	    -11.63355213	     -7.49999987	     -2.16113267	      1.51478703	     -0.35087591	      0.89835964	      0.01567933	     11.75295032	      2.21841726	     -7.49999987	      0.38595996	     -2.19070202	      3.32661138	     26.43430569	      8.90920014	     40.43475118	    146.02121198	     73.29246958	     -3.68129052	     -3.76581920	     -3.16189290	     32.45804445	     56.34709071
      6.90000000	     -1.92140071	      2.92797642	     -3.01304772	     -0.08588930	      1.34729814	     -0.06259248	     -4.19923716	     -0.15139687	     -4.03707951	      2.37319701	      0.04142010	      6.69773936	    -11.37575000	     -7.49999987	     -2.15904455	      1.54855470	     -0.53068882	      0.85549928	      0.01493128	     11.58691373	      2.07107767	     -7.49999987	      0.20640478	     -2.23739619	      3.51686269	     26.34666077	      8.81285533	     41.21057590	    145.99336388	     70.85118158	     -3.53959459	     -3.80050655	     -2.77881935	     32.16778639	     57.50922615
      6.91666670	     -2.02682533	      2.95449805	     -3.08424570	     -0.08538796	      1.34654025	     -0.06165454	     -4.10288437	     -0.18155307	     -4.05474459	      2.32423023	      0.04056547	      6.37775250	    -11.58742653	     -7.49999987	     -2.12085011	      1.56765037	     -0.69300612	      0.83484185	      0.01457074	     11.38138430	      2.07235297	     -7.49999987	      0.05484655	     -2.33194090	      3.62836308	     26.45066597	      8.93929188	     42.04025735	    145.79848071	     74.77335122	     -3.52030637	     -3.68107150	     -3.38751024	     32.22406899	     56.55208808
      6.93333330	     -2.11645132	      2.91977749	     -3.15584722	     -0.08644565	      1.34717554	     -0.06206425	     -4.01316482	     -0.14836568	     -4.30425534	      2.29929142	      0.04013021	      6.58326039	    -11.09250399	     -7.49999987	     -2.07785097	      1.54508273	     -0.80686588	      0.79944363	      0.01395292	     11.21075826	      2.03200118	     -7.49999987	     -0.09865064	     -2.32015527	      3.49331284	     26.66608368	      9.01070771	     43.54306164	    145.78167680	     70.34565191	     -3.53328274	     -3.53148392	     -4.20054978	     32.11519442	     57.54880251
      6.95000000	     -2.31684754	      2.94145598	     -3.20829451	     -0.08768581	      1.34442680	     -0.06173348	     -3.81849771	     -0.14839671	     -4.23248046	      2.16244055	      0.03774171	      6.41381249	    -11.32237491	     -7.49999987	     -1.87207330	      1.56194761	     -0.69429458	      0.76568512	      0.01336373	     10.95041461	      1.90951750	     -7.49999987	     -0.07351372	     -2.38999942	      3.67361422	     26.72693745	      9.09491791	     44.76758846	    145.76490064	     72.18830865	     -3.34590438	     -3.59502565	     -4.00225194	     31.98760452	     57.36187498
      6.96666670	     -2.47606745	      2.89335336	     -3.34174604	     -0.08813387	      1.34202482	     -0.06128999	     -3.64543965	     -0.08053532	     -4.15750091	      2.06941762	      0.03611815	      6.49081097	    -11.27777860	     -7.49999987	     -1.66379002	      1.52315386	     -0.96344805	      0.74743840	      0.01304526	     11.14349306	      2.45451610	     -7.49999987	     -0.17815632	     -2.33048382	      3.63656544	     27.14218612	      9.26031477	     46.43996092	    145.62111051	     75.25405310	     -3.30496920	     -3.62627516	     -4.07172397	     32.10680981	     56.94996907
      6.98333330	     -2.55324773	      2.88764731	     -3.32890650	     -0.08796618	      1.33853252	     -0.06112675	     -3.56582538	     -0.05068465	     -4.21657517	      2.05820246	      0.03592241	      6.49912807	    -11.46904859	     -7.49999987	     -1.53577601	      1.52184754	     -0.80911088	      0.72788673	      0.01270402	     11.25309217	      2.69410331	     -7.49999987	     -0.22140094	     -2.41102322	      3.41641695	     27.69830480	      9.49753600	     48.14454581	    145.54564789	     70.63760439	     -3.42655474	     -3.64538316	     -4.55164763	     32.45795641	     57.82232620
      7.00000000	     -3.12987577	      2.91699550	     -3.27616811	     -0.08919035	      1.33775762	     -0.06091731	     -2.63857059	     -0.02552070	     -4.17507553	      2.45654091	      0.04287473	      6.74514653	    -11.47085527	     -7.49999987	     -0.59367543	      1.50323735	     -0.62256796	      1.20882213	      0.02109793	     11.48850944	      2.64177285	     -7.49999987	      0.34813700	     -2.38101947	      3.16362525	     28.38877097	      9.75956102	     49.68645261	    144.30847906	     69.55021634	     -3.54440556	     -3.84238724	     -4.28203642	     32.64424312	     58.26922097
      7.01666670	     -2.91316948	      2.89880849	     -3.21876418	     -0.08709113	      1.33574046	     -0.06122751	     -3.15337049	      0.02249207	     -4.18583242	      1.93619533	      0.03379298	      6.63267965	    -11.18172225	     -7.49999987	     -1.09311562	      1.48259296	     -0.47160968	      0.77635519	      0.01354995	     11.36938225	      2.91025912	     -7.49999987	      0.05306523	     -2.56772490	      3.64419466	     28.88015572	      9.72107867	     50.56408900	    144.79887666	     76.32829834	     -3.10322069	     -3.89717406	     -3.96595919	     32.43375164	     57.26347561
      7.03333330	     -2.96571828	      2.89539404	     -3.26705696	     -0.08399533	      1.33813794	     -0.06173641	     -3.13212585	      0.02984806	     -4.19411375	      1.89901991	      0.03314415	      6.77717697	    -10.90792475	     -7.49999987	     -1.08831375	      1.45444359	     -0.49245843	      0.78703698	      0.01373639	     11.43415282	      2.89924257	     -7.49999987	      0.19481234	     -2.57355299	      3.74503412	     29.43824564	      9.71163295	     51.80636492	    144.35114598	     76.46830702	     -3.23951564	     -3.88064783	     -3.83728684	     32.56738161	     57.39764598
      7.05000000	     -2.97988723	      2.89110773	     -3.39500249	     -0.08275620	      1.33641497	     -0.06151079	     -3.18382246	      0.03578635	     -4.09191199	      1.81388471	      0.03165826	      6.75914466	    -10.96462102	     -7.49999987	     -1.12119741	      1.43740800	     -0.61860414	      0.77702284	      0.01356161	     11.55988550	      3.05126048	     -7.49999987	      0.38492383	     -2.57713944	      3.86984605	     29.85356277	      9.65123125	     52.90626020	    143.81035389	     76.72481176	     -3.37115627	     -3.85356441	     -3.67215373	     32.62080519	     57.54731407
      7.06666670	     -3.24811358	      2.89798242	     -3.48598127	     -0.08272839	      1.33136454	     -0.06060869	     -2.93749555	      0.06344563	     -4.00052588	      1.85172369	      0.03231868	      7.07048444	    -10.67461374	     -7.49999987	     -0.90565686	      1.41185807	     -0.48515011	      0.76373402	      0.01332967	     11.72502231	      2.89739154	     -7.49999987	      1.01592106	     -2.65108145	      3.93324136	     30.17038934	      9.64920845	     53.21837289	    143.06211375	     76.38441380	     -3.75117287	     -3.89068780	     -3.68326515	     33.03786384	     57.58826233
      7.08333330	     -3.04973019	      2.87931058	     -3.61114528	     -0.08271629	      1.33683528	     -0.06058390	     -3.20764297	      0.07246679	     -3.88330026	      1.73309741	      0.03024826	      7.09073632	    -10.48120370	     -7.49999987	     -1.19189520	      1.38698283	     -0.59019217	      0.71060078	      0.01240232	     11.91880225	      3.07520926	     -7.49999987	      0.87523362	     -2.64355993	      4.09634305	     30.82144220	      9.41079741	     54.37686915	    141.98957425	     75.80338066	     -3.50793302	     -3.78220973	     -3.64526953	     32.61087759	     57.69136364
      7.10000000	     -3.12337607	      2.89782087	     -3.66182943	     -0.08387457	      1.33552636	     -0.06022102	     -3.17535743	      0.07098687	     -3.44759725	      1.57850127	      0.02755004	      6.95901855	    -10.63197977	     -7.49999987	     -1.15756092	      1.37979840	     -0.47520023	      0.68445938	      0.01194607	     11.98272069	      2.92292654	     -7.49999987	      1.14801909	     -2.73072239	      4.48822911	     31.13677038	      9.06791925	     54.72447649	    140.94738881	     70.90172354	     -3.22902633	     -4.03898660	     -2.25167724	     32.37827772	     58.81248769
      7.11666670	     -3.45078442	      2.94927911	     -3.71184336	     -0.08424851	      1.33554265	     -0.06015596	     -2.62282351	     -0.03948371	     -3.72268867	      2.10403807	      0.03672239	      7.30805974	    -10.12070482	     -7.49999987	     -0.60348695	      1.40225762	     -0.47306572	      1.14822752	      0.02004035	     12.24838191	      2.85490845	     -7.49999987	      1.68551066	     -2.76704819	      4.59330727	     31.39695713	      8.78944762	     54.82965347	    139.19673663	     71.90129651	     -3.07564389	     -4.05216213	     -1.85219363	     32.23167410	     58.52046793
      7.13333330	     -3.14293223	      2.89737557	     -3.88303181	     -0.08205316	      1.33568780	     -0.06027936	     -3.29735153	      0.01528291	     -3.33100958	      1.51419354	      0.02642766	      7.16689153	    -10.09769552	     -7.49999987	     -1.23779792	      1.37641349	     -0.48362947	      0.60948663	      0.01063755	     12.27410931	      3.07079198	     -7.49999987	      1.51387476	     -2.83097370	      5.04938110	     31.54310185	      8.40170685	     54.47862787	    138.57121238	     76.60265669	     -2.68840868	     -3.96899857	     -1.58328028	     31.89478451	     57.63520292
